<svg width="135" height="41" viewBox="0 0 135 41" fill="none" xmlns="http://www.w3.org/2000/svg">
<path d="M24.1881 7.28565H14.3751C13.6986 7.28565 13.1484 7.8408 13.1484 8.52264V15.9843C13.1484 16.6662 13.6986 17.2213 14.3751 17.2213H16.215V19.7053L20.1102 17.2213H24.1881C24.8646 17.2213 25.4147 16.6662 25.4147 15.9843V8.52264C25.4137 8.19401 25.284 7.8792 25.0541 7.64729C24.8241 7.41538 24.5127 7.28531 24.1881 7.28565ZM20.5082 14.1164H16.215V12.8745H20.5082V14.1164ZM22.3481 11.6325H16.215V10.3905H22.3481V11.6325Z" fill="white"/>
<path d="M25.1611 25.239C23.311 25.239 21.5349 24.9615 19.8772 24.4481C19.3592 24.2955 18.782 24.4065 18.3676 24.7811L15.1114 27.8338C10.9229 25.8357 7.48912 22.6304 5.35783 18.7036L8.61396 15.6371C9.02838 15.2625 9.14679 14.7213 8.98398 14.2357C8.43636 12.6816 8.14034 11.0165 8.14034 9.28209C8.14034 8.51893 7.47432 7.89453 6.66028 7.89453H1.48006C0.666028 7.89453 0 8.51893 0 9.28209C0 22.3113 11.2633 32.8706 25.1611 32.8706C25.9751 32.8706 26.6411 32.2462 26.6411 31.483V26.6266C26.6411 25.8634 25.9751 25.239 25.1611 25.239Z" fill="white"/>
<path d="M37.3415 31.4927V7.87961H47.58C49.3786 7.87961 50.889 8.12174 52.1112 8.60599C53.3411 9.09024 54.2673 9.77435 54.8899 10.6583C55.5202 11.5423 55.8353 12.5838 55.8353 13.7829C55.8353 14.6515 55.6432 15.4432 55.2589 16.158C54.8822 16.8729 54.3518 17.4724 53.6677 17.9567C52.9836 18.4332 52.1842 18.7638 51.2695 18.9482V19.1788C52.2842 19.2173 53.2065 19.4748 54.0367 19.9513C54.8668 20.4202 55.5279 21.0697 56.0198 21.8999C56.5118 22.7223 56.7577 23.6908 56.7577 24.8054C56.7577 26.0967 56.4195 27.2459 55.7431 28.2528C55.0744 29.2597 54.1212 30.0514 52.8837 30.6279C51.6462 31.2044 50.1704 31.4927 48.4563 31.4927H37.3415ZM43.7521 26.3734H46.7498C47.826 26.3734 48.633 26.1736 49.1711 25.7739C49.7092 25.3665 49.9782 24.7669 49.9782 23.9752C49.9782 23.4218 49.8514 22.9529 49.5977 22.5686C49.3441 22.1843 48.9828 21.8922 48.5139 21.6923C48.0527 21.4925 47.4954 21.3926 46.8421 21.3926H43.7521V26.3734ZM43.7521 17.4263H46.3809C46.942 17.4263 47.4378 17.3379 47.8682 17.1611C48.2987 16.9843 48.633 16.7307 48.8713 16.4001C49.1173 16.0619 49.2403 15.6507 49.2403 15.1665C49.2403 14.4362 48.9789 13.879 48.4563 13.4946C47.9336 13.1026 47.2725 12.9066 46.4731 12.9066H43.7521V17.4263ZM59.0291 31.4927V7.87961H65.4397V26.3273H74.9864V31.4927H59.0291ZM83.9883 7.87961V31.4927H77.5777V7.87961H83.9883ZM107.457 7.87961V31.4927H102.107L93.5753 19.0866H93.4369V31.4927H87.0264V7.87961H92.4684L100.862 20.2396H101.047V7.87961H107.457ZM125.824 15.6738C125.724 15.2664 125.567 14.909 125.351 14.6015C125.136 14.2863 124.867 14.0212 124.544 13.8059C124.229 13.583 123.86 13.4178 123.438 13.3102C123.022 13.1949 122.565 13.1372 122.065 13.1372C120.989 13.1372 120.071 13.3947 119.31 13.9097C118.557 14.4247 117.98 15.1665 117.58 16.135C117.188 17.1035 116.992 18.2718 116.992 19.64C116.992 21.0236 117.181 22.2073 117.557 23.1912C117.934 24.1751 118.495 24.9284 119.241 25.4511C119.986 25.9737 120.913 26.2351 122.019 26.2351C122.996 26.2351 123.806 26.0929 124.452 25.8085C125.106 25.5241 125.594 25.1205 125.916 24.5978C126.239 24.0752 126.401 23.4602 126.401 22.7531L127.508 22.8684H122.112V18.3026H132.581V21.577C132.581 23.7293 132.123 25.5702 131.209 27.0998C130.302 28.6218 129.049 29.7901 127.45 30.6049C125.859 31.412 124.033 31.8155 121.973 31.8155C119.675 31.8155 117.657 31.3274 115.92 30.3512C114.183 29.375 112.826 27.9838 111.85 26.1774C110.882 24.3711 110.397 22.2227 110.397 19.7323C110.397 17.7799 110.693 16.0504 111.285 14.5438C111.885 13.0373 112.715 11.7652 113.776 10.7275C114.836 9.68211 116.062 8.89424 117.454 8.36386C118.845 7.82581 120.336 7.55678 121.927 7.55678C123.326 7.55678 124.625 7.75663 125.824 8.15633C127.031 8.54834 128.096 9.10946 129.018 9.83968C129.948 10.5622 130.697 11.4193 131.266 12.4108C131.835 13.4024 132.181 14.49 132.304 15.6738H125.824Z" fill="white"/>
</svg>
